<svg width="14" height="10" viewBox="0 0 14 10" fill="none" xmlns="http://www.w3.org/2000/svg">
    <path d="M0.679749 1.8692C0.741076 1.906 0.783993 1.93054 0.820789 1.95507C2.61154 3.14481 4.39616 4.3407 6.18692 5.53045C6.89218 6.00267 7.78757 6.00267 8.49897 5.53045C10.2836 4.34684 12.0621 3.15709 13.8405 1.96734C13.8835 1.93668 13.9325 1.90603 14 1.8631C14 1.92443 14 1.96735 14 2.01028C14 4.16286 14 6.32157 14 8.47415C14 9.36953 13.3867 9.98895 12.4913 9.98895C9.05701 9.98895 5.6227 9.98895 2.18837 9.98895C1.29913 9.98895 0.679749 9.36954 0.679749 8.48643C0.679749 6.32771 0.679749 4.16899 0.679749 2.01028C0.679749 1.97348 0.679749 1.93053 0.679749 1.8692Z" fill="#00D8BB"/>
    <path d="M0.765472 0.980028C0.924923 0.440348 1.47074 0.0355782 2.07174 0.0110474C2.10854 0.0110474 2.13923 0.0110474 2.17603 0.0110474C5.61648 0.0110474 9.06305 0.0110474 12.5035 0.0110474C13.1229 0.0110474 13.5829 0.287011 13.865 0.845088C13.8834 0.888017 13.9018 0.930966 13.9202 0.980028C13.8159 1.04749 13.7117 1.11492 13.6135 1.18238C11.7676 2.41506 9.92165 3.64161 8.0757 4.87429C7.60961 5.18706 7.06992 5.18706 6.60383 4.87429C4.69656 3.60482 2.78927 2.32919 0.881996 1.05972C0.839067 1.03519 0.802269 1.00456 0.765472 0.980028Z" fill="#00D8BB"/>
</svg>
