<svg width="119" height="45" viewBox="0 0 119 45" fill="none" xmlns="http://www.w3.org/2000/svg">
    <path d="M0.843237 16.9463C1.64209 11.3445 5.73253 7.95818 12.0716 7.95818C19.0764 7.95818 22.6417 12.1003 22.6417 17.9392V27.7276C22.6417 30.8324 22.9227 32.5737 23.3961 33.8926H17.1458C16.8204 33.0479 16.6724 31.8179 16.628 30.4545C14.5569 33.374 11.4577 34.5966 8.45456 34.5966C3.52089 34.5966 0 32.1513 0 27.3053C0 23.8671 1.92317 21.2811 5.77691 20.0066C9.11288 18.8803 12.3527 18.5913 16.5837 18.5468V17.9318C16.5837 14.6863 15.0303 12.945 11.6944 12.945C8.8244 12.945 7.27847 14.5455 6.90123 16.9463H0.843237ZM10.0079 30.1284C13.7211 30.1284 16.5837 27.1126 16.5837 23.3484V22.2666C8.03294 22.4074 6.06539 24.4303 6.06539 26.9718C6.06539 28.9058 7.56694 30.1284 10.0079 30.1284ZM12.8779 0H19.5942L14.52 6.10571H9.0685L12.8779 0Z" fill="#00DEC1"/>
    <path d="M25.8 0H31.8137V33.8926H25.8V0Z" fill="#00DEC1"/>
    <path d="M35.7117 16.9464C36.5106 11.3446 40.601 7.95825 46.9401 7.95825C53.9449 7.95825 57.5101 12.1004 57.5101 17.9393V27.7277C57.5101 30.8324 57.7912 32.5738 58.2646 33.8927H52.0143C51.6888 33.048 51.5409 31.818 51.4965 30.4545C49.4254 33.374 46.3261 34.5966 43.323 34.5966C38.3894 34.5966 34.8611 32.1514 34.8611 27.298C34.8611 23.8598 36.7843 21.2737 40.638 19.9993C43.974 18.873 47.2138 18.584 51.4447 18.5395V17.9319C51.4447 14.6864 49.8914 12.9451 46.5555 12.9451C43.6855 12.9451 42.1396 14.5456 41.7623 16.9464H35.7117ZM44.8764 30.1285C48.5896 30.1285 51.4521 27.1127 51.4521 23.3485V22.2667C42.9014 22.4075 40.9265 24.4303 40.9265 26.9719C40.9265 28.9059 42.4354 30.1285 44.8764 30.1285Z" fill="#00DEC1"/>
    <path d="M60.7576 20.992C60.7576 12.6115 64.7962 7.95068 71.0983 7.95068C74.1088 7.95068 76.4536 9.07698 78.0069 11.1962V8.65462H84.0206V34.6854C84.0206 41.5099 79.3236 44.9925 73.0733 44.9925C71.7418 44.9925 66.9635 45.1259 63.842 41.5099C62.4219 39.8649 61.8819 38.0643 61.6526 36.9825C63.6645 36.9825 65.6765 36.9825 67.6884 36.9825C67.8067 37.3455 68.0286 37.8568 68.4281 38.3607C69.9444 40.2724 72.5259 40.2354 72.9771 40.2354C75.9876 40.2354 78.0069 38.7756 78.0069 34.7743V30.5359C76.3649 32.7959 74.0127 33.9741 71.0983 33.9741C64.7075 33.9889 60.7576 29.0465 60.7576 20.992ZM78.0069 20.992C78.0069 15.8644 75.9876 12.9449 72.4593 12.9449C68.8867 12.9449 66.9635 15.7681 66.9635 20.992C66.9635 26.1196 68.8867 28.9946 72.4593 28.9946C76.0764 28.9946 78.0069 26.1715 78.0069 20.992Z" fill="#00DEC1"/>
    <path d="M87.9629 16.9464C88.7618 11.3446 92.8522 7.95825 99.1913 7.95825C106.196 7.95825 109.761 12.1004 109.761 17.9393V27.7277C109.761 30.8324 110.042 32.5738 110.516 33.8927H104.266C103.94 33.048 103.792 31.818 103.748 30.4545C101.677 33.374 98.5774 34.5966 95.5743 34.5966C90.6406 34.5966 87.1123 32.1514 87.1123 27.298C87.1123 23.8598 89.0355 21.2737 92.8892 19.9993C96.2252 18.873 99.465 18.584 103.696 18.5395V17.9319C103.696 14.6864 102.143 12.9451 98.8067 12.9451C95.9367 12.9451 94.3908 14.5456 94.0135 16.9464H87.9629ZM97.1276 30.1285C100.841 30.1285 103.703 27.1127 103.703 23.3485V22.2667C95.1526 22.4075 93.1777 24.4303 93.1777 26.9719C93.1777 28.9059 94.6866 30.1285 97.1276 30.1285Z" fill="#00DEC1"/>
    <path d="M115.908 23.6597C117.616 23.6597 119 22.273 119 20.5624C119 18.8518 117.616 17.4651 115.908 17.4651C114.2 17.4651 112.816 18.8518 112.816 20.5624C112.816 22.273 114.2 23.6597 115.908 23.6597Z" fill="#FF7362"/>
</svg>
