<svg width="81" height="31" viewBox="0 0 81 31" fill="none" xmlns="http://www.w3.org/2000/svg">
    <path d="M6.71769 11.3779C7.25729 7.61612 10.0016 5.34206 14.2644 5.34206C18.9744 5.34206 21.3718 8.12488 21.3718 12.0409V18.6086C21.3718 20.6899 21.5645 21.8616 21.8805 22.7481H17.6793C17.4558 22.1777 17.3633 21.3606 17.3324 20.4433C15.9449 22.4012 13.8559 23.2261 11.8362 23.2261C8.5215 23.2261 6.14725 21.5841 6.14725 18.3311C6.14725 16.0262 7.44229 14.2841 10.0324 13.4361C12.2756 12.6807 14.4571 12.488 17.3016 12.4571V12.0486C17.3016 9.86703 16.261 8.70305 14.0177 8.70305C12.0906 8.70305 11.0499 9.77454 10.7955 11.3856H6.71769V11.3779ZM12.8769 20.2197C15.3745 20.2197 17.3016 18.2 17.3016 15.6716V14.947C11.551 15.0395 10.2251 16.4039 10.2251 18.1075C10.2174 19.4026 11.2349 20.2197 12.8769 20.2197ZM14.804 0H19.3213L15.9064 4.09327H12.2448L14.804 0Z" fill="#00DEC1"/>
    <path d="M23.4916 0H27.5387V22.7481H23.4916V0Z" fill="#00DEC1"/>
    <path d="M30.1519 11.3779C30.6915 7.61613 33.4358 5.34207 37.6986 5.34207C42.4086 5.34207 44.806 8.12488 44.806 12.0409V18.6086C44.806 20.6899 44.9987 21.8616 45.3147 22.7481H41.1135C40.89 22.1777 40.7975 21.3606 40.7667 20.4433C39.3791 22.4013 37.2901 23.2261 35.2704 23.2261C31.9557 23.2261 29.5815 21.5841 29.5815 18.3311C29.5815 16.0262 30.8765 14.2841 33.4666 13.4361C35.7098 12.6807 37.8913 12.488 40.7358 12.4572V12.0486C40.7358 9.86704 39.6952 8.70306 37.452 8.70306C35.5248 8.70306 34.4841 9.77455 34.2297 11.3856H30.1519V11.3779ZM36.3188 20.2197C38.8164 20.2197 40.7435 18.2001 40.7435 15.6716V14.947C34.9929 15.0395 33.667 16.4039 33.667 18.1075C33.6593 19.4026 34.6691 20.2197 36.3188 20.2197Z" fill="#00DEC1"/>
    <path d="M46.9952 14.0914C46.9952 8.4718 49.7086 5.34207 53.9483 5.34207C55.968 5.34207 57.5483 6.09753 58.5889 7.52362V5.82H62.6359V23.2877C62.6359 27.8667 59.4754 30.2101 55.2742 30.2101C54.38 30.2101 51.1655 30.2949 49.0688 27.8744C48.1129 26.772 47.7506 25.5618 47.5964 24.8372C48.9455 24.8372 50.3022 24.8372 51.6512 24.8372C51.736 25.0839 51.8824 25.423 52.1522 25.7622C53.1698 27.0495 54.9119 27.0187 55.2048 27.0187C57.2245 27.0187 58.5889 26.0397 58.5889 23.3571V20.5126C57.4866 22.0312 55.9063 22.8175 53.9483 22.8175C49.6469 22.8098 46.9952 19.4951 46.9952 14.0914ZM58.5889 14.0914C58.5889 10.6456 57.2322 8.68763 54.858 8.68763C52.4606 8.68763 51.1578 10.584 51.1578 14.0914C51.1578 17.5371 52.4529 19.4643 54.858 19.4643C57.2939 19.4643 58.5889 17.568 58.5889 14.0914Z" fill="#00DEC1"/>
    <path d="M65.2877 11.3779C65.8273 7.61613 68.5716 5.34207 72.8345 5.34207C77.5444 5.34207 79.9418 8.12488 79.9418 12.0409V18.6086C79.9418 20.6899 80.1345 21.8616 80.4506 22.7481H76.2494C76.0258 22.1777 75.9333 21.3606 75.9025 20.4433C74.5149 22.4013 72.4259 23.2261 70.4062 23.2261C67.0915 23.2261 64.7173 21.5841 64.7173 18.3311C64.7173 16.0262 66.0123 14.2841 68.6024 13.4361C70.8456 12.6807 73.0272 12.488 75.8716 12.4572V12.0486C75.8716 9.86704 74.831 8.70306 72.5878 8.70306C70.6606 8.70306 69.62 9.77455 69.3656 11.3856H65.2877V11.3779ZM71.4469 20.2197C73.9445 20.2197 75.8716 18.2001 75.8716 15.6716V14.947C70.121 15.0395 68.7951 16.4039 68.7951 18.1075C68.7951 19.4026 69.805 20.2197 71.4469 20.2197Z" fill="#00DEC1"/>
    <path d="M2.07362 15.8798C3.21885 15.8798 4.14724 14.9514 4.14724 13.8062C4.14724 12.6609 3.21885 11.7325 2.07362 11.7325C0.928392 11.7325 0 12.6609 0 13.8062C0 14.9514 0.928392 15.8798 2.07362 15.8798Z" fill="#FF7362"/>
</svg>