<svg width="161" height="61" viewBox="0 0 161 61" fill="none" xmlns="http://www.w3.org/2000/svg">
    <path d="M1.15002 22.87C2.23002 15.31 7.76002 10.74 16.33 10.74C25.8 10.74 30.6201 16.33 30.6201 24.21V37.42C30.6201 41.61 31 43.96 31.64 45.74H23.19C22.75 44.6 22.5501 42.94 22.4901 41.1C19.6901 45.04 15.5 46.69 11.44 46.69C4.77 46.69 0 43.39 0 36.84C0 32.2 2.60006 28.71 7.81006 26.99C12.3201 25.47 16.7 25.08 22.42 25.02V24.2C22.42 19.82 20.3201 17.47 15.8101 17.47C11.9301 17.47 9.84002 19.63 9.33002 22.87H1.15002ZM13.54 40.66C18.56 40.66 22.4301 36.59 22.4301 31.51V30.05C10.8701 30.24 8.20001 32.97 8.20001 36.4C8.20001 39.01 10.23 40.66 13.54 40.66ZM17.41 0H26.4901L19.63 8.24H12.26L17.41 0Z" fill="#00DEC1"/>
    <path d="M34.88 0H43.01V45.74H34.88V0Z" fill="#00DEC1"/>
    <path d="M48.29 22.87C49.37 15.31 54.9 10.74 63.47 10.74C72.94 10.74 77.76 16.33 77.76 24.21V37.42C77.76 41.61 78.14 43.96 78.78 45.74H70.33C69.89 44.6 69.69 42.94 69.63 41.1C66.83 45.04 62.64 46.69 58.58 46.69C51.91 46.69 47.14 43.39 47.14 36.84C47.14 32.2 49.74 28.71 54.95 26.99C59.46 25.47 63.8401 25.08 69.5601 25.02V24.2C69.5601 19.82 67.46 17.47 62.95 17.47C59.07 17.47 56.98 19.63 56.47 22.87H48.29ZM60.67 40.66C65.69 40.66 69.5601 36.59 69.5601 31.51V30.05C58.0001 30.24 55.33 32.97 55.33 36.4C55.34 39.01 57.37 40.66 60.67 40.66Z" fill="#00DEC1"/>
    <path d="M82.15 28.33C82.15 17.02 87.61 10.73 96.13 10.73C100.2 10.73 103.37 12.25 105.47 15.11V11.68H113.6V46.81C113.6 56.02 107.25 60.72 98.8 60.72C97 60.72 90.5401 60.9 86.3201 56.02C84.4001 53.8 83.67 51.37 83.36 49.91C86.08 49.91 88.8 49.91 91.52 49.91C91.68 50.4 91.98 51.09 92.52 51.77C94.57 54.35 98.06 54.3 98.67 54.3C102.74 54.3 105.47 52.33 105.47 46.93V41.21C103.25 44.26 100.07 45.85 96.13 45.85C87.48 45.87 82.15 39.2 82.15 28.33ZM105.46 28.33C105.46 21.41 102.73 17.47 97.9601 17.47C93.1301 17.47 90.53 21.28 90.53 28.33C90.53 35.25 93.1301 39.13 97.9601 39.13C102.86 39.13 105.46 35.32 105.46 28.33Z" fill="#00DEC1"/>
    <path d="M118.93 22.87C120.01 15.31 125.54 10.74 134.11 10.74C143.58 10.74 148.4 16.33 148.4 24.21V37.42C148.4 41.61 148.78 43.96 149.42 45.74H140.97C140.53 44.6 140.33 42.94 140.27 41.1C137.47 45.04 133.28 46.69 129.22 46.69C122.55 46.69 117.78 43.39 117.78 36.84C117.78 32.2 120.38 28.71 125.59 26.99C130.1 25.47 134.48 25.08 140.2 25.02V24.2C140.2 19.82 138.1 17.47 133.59 17.47C129.71 17.47 127.62 19.63 127.11 22.87H118.93ZM131.32 40.66C136.34 40.66 140.21 36.59 140.21 31.51V30.05C128.65 30.24 125.98 32.97 125.98 36.4C125.98 39.01 128.01 40.66 131.32 40.66Z" fill="#00DEC1"/>
    <path d="M156.71 31.9299C159.019 31.9299 160.89 30.0585 160.89 27.7499C160.89 25.4414 159.019 23.5699 156.71 23.5699C154.402 23.5699 152.53 25.4414 152.53 27.7499C152.53 30.0585 154.402 31.9299 156.71 31.9299Z" fill="#FF7362"/>
</svg>
