<svg width="82" height="73" viewBox="0 0 82 73" fill="none" xmlns="http://www.w3.org/2000/svg">
    <path d="M55.7666 15.1838C52.8185 16.067 51.5844 15.9254 49.0083 17.2806C48.4851 17.5543 48.5601 17.6834 48.0396 17.8166C45.9222 18.356 43.8206 18.9657 41.7126 19.5399C36.0747 21.0754 33.6012 22.7325 25.4107 23.995C24.4828 24.138 22.4521 24.4211 19.8732 25.3949C18.1834 26.0341 17.1997 26.8041 16.1944 27.1107C13.319 27.9868 10.4478 28.8898 7.50748 29.8019C7.79354 30.8811 7.97143 31.7189 8.23685 32.524C10.6436 39.8361 13.0213 47.1561 15.501 54.4394C17.1537 59.2971 19.0198 64.0697 21.1654 68.7145C22.3477 71.2717 22.3584 71.2999 25.1655 70.7373C26.8081 70.409 28.4414 69.9993 30.0632 69.5586C39.4064 67.0209 48.4942 63.6226 57.6567 60.4685C62.834 58.6866 68.1059 57.1995 73.1609 55.0309C76.1792 53.7375 76.1218 53.7435 75.4207 50.582C72.6712 38.1637 68.3829 26.2416 64.9846 14.0343C64.6227 12.73 64.065 12.6775 63.0222 13.0067C62.9737 13.0228 60.5725 13.7438 55.7666 15.1838Z" fill="url(#paint0_linear_184_161)"/>
    <path d="M44.9432 -6.74069C44.4275 -6.36948 44.6888 -5.81187 44.9346 -5.39305C45.8205 -3.88428 46.7625 -2.4092 47.6621 -0.907211C49.4464 2.07591 49.4405 2.07746 45.951 3.31696C45.8128 3.14893 45.6085 2.9893 45.5307 2.78022C45.3205 2.22757 45.1385 1.49028 44.4238 1.67556C43.4793 1.91931 43.9029 2.7348 44.0434 3.34031C44.4129 4.9626 44.9282 6.56133 45.1865 8.19786C45.605 10.8727 45.0296 11.4619 42.4435 10.971C40.4148 10.5888 38.6693 10.8234 37.1447 12.3225C36.4887 12.9705 35.6259 13.5652 34.6712 13.2028C32.2828 12.3016 30.1168 12.59 28.0274 14.0105C27.0967 14.642 26.4128 14.1883 26.0855 13.2569C25.6712 12.0816 25.3067 10.8837 25.0278 9.66899C24.2795 6.42384 23.5891 3.16316 22.8755 -0.0913083C22.7612 -0.610623 22.5642 -1.11399 21.932 -1.00362C21.2816 -0.891487 21.2771 -0.293736 21.3718 0.187325C21.742 2.06731 22.1527 3.93642 22.5613 5.80921C23.2395 8.90849 23.2432 8.91061 20.1118 9.71239C20.0306 9.73414 19.9471 9.74718 19.8696 9.77106C18.1359 10.2698 17.7741 10.7054 18.0931 12.4406C18.4986 14.6498 19.029 16.8379 19.5528 19.0247C19.975 20.7976 20.01 20.8006 18.1888 21.3321C15.4678 22.1233 12.7336 22.8653 10.0188 23.6797C7.35539 24.4772 6.98857 25.0447 7.8475 27.6357C11.8381 39.6531 15.7651 51.7 21.0898 63.2233C21.6141 64.3567 22.2431 65.4403 22.8165 66.5481C23.2124 67.3182 23.7288 67.5061 24.6439 67.3385C26.938 66.9134 29.2367 66.5522 31.5035 65.979C40.4836 63.7095 49.2283 60.689 58.0062 57.7808C64.4095 55.658 70.9737 54.0079 77.1687 51.2699C79.2079 50.3693 79.2995 50.3633 78.8713 48.1043C78.4853 46.0608 77.9281 44.0508 77.418 42.0312C74.6153 30.9569 70.4054 20.3125 67.3789 9.30744C67.1013 8.29439 66.4248 7.93814 65.5214 8.06836C64.4531 8.22101 63.4039 8.51456 62.3611 8.79709C60.2704 9.3666 58.1829 9.9477 56.1083 10.5657C55.1275 10.8596 54.5504 10.6538 54.272 9.59126C53.7416 7.57711 53.1337 5.58683 52.5511 3.58666C52.344 2.87163 52.2919 1.98145 51.5662 1.6384C50.4698 1.11813 50.1032 0.0978417 49.5463 -0.809325C48.4558 -2.58328 47.3783 -4.36693 46.287 -6.14378C45.9809 -6.63658 45.6446 -7.24242 44.9432 -6.74069ZM33.6163 14.5418C35.2835 15.1515 36.7618 14.7895 38.0141 13.6306C39.2965 12.445 40.6903 12.0809 42.3754 12.549C43.0001 12.7234 43.7022 12.7465 44.3511 12.6752C45.8938 12.5073 46.6429 11.6852 46.8589 10.0676C46.9014 9.73928 46.8608 9.40218 46.8843 9.07274C46.9193 8.60041 47.2119 8.289 47.6466 8.20671C48.1937 8.10359 48.3118 8.54423 48.4068 8.95685C48.4626 9.19979 48.5242 9.44117 48.577 9.68488C49.3666 13.4782 49.4079 12.7743 46.1861 13.6096C40.0584 15.1956 33.9237 16.7555 27.7866 18.3067C25.9562 18.7692 25.9456 18.741 25.2572 17.0302C24.9776 16.3346 24.7096 15.6358 24.4495 14.9319C24.3939 14.7821 24.4034 14.6087 24.3432 14.1059C26.5055 16.239 27.0012 16.3609 29.3148 15.0699C30.7118 14.2885 32.1045 13.9899 33.6163 14.5418ZM51.7943 6.80327C52.0884 7.66899 52.2602 8.57681 52.5406 9.44932C53.5531 12.6019 53.865 12.7918 56.9749 11.9678C59.3912 11.3266 61.7959 10.6419 64.1928 9.92814C65.2286 9.61952 65.7835 9.67279 66.1593 10.9361C69.6567 22.7594 74.0355 34.3124 76.8869 46.3338C77.6132 49.3922 77.6706 49.3861 74.6686 50.6131C69.6436 52.6617 64.3964 54.0552 59.2464 55.7303C50.1332 58.6973 41.0923 61.8997 31.7922 64.2736C30.1778 64.6844 28.5529 65.067 26.9164 65.3719C24.1195 65.8914 24.1096 65.8661 22.9074 63.3856C20.727 58.8775 18.8227 54.2519 17.1324 49.544C14.5982 42.4866 12.1595 35.3912 9.69626 28.3086C9.42545 27.5298 9.23927 26.719 8.9436 25.6735C11.871 24.8177 14.7257 23.9689 17.5882 23.1491C21.9105 21.9101 21.9013 21.9219 20.8474 17.6991C20.4851 16.2427 20.1526 14.7814 19.8636 13.3084C19.5012 11.4574 19.5244 11.4512 21.4629 11.0561C21.6247 11.0221 21.7895 10.953 21.9519 10.9561C22.5586 10.9707 23.2828 10.4038 23.7241 11.2736C24.1397 12.0943 23.6302 12.4421 22.9907 12.8154C22.3051 13.2135 22.2835 13.8749 22.5602 14.5713C23.1498 16.0414 23.7996 17.4922 24.2922 18.9945C24.7296 20.3252 25.4695 20.5588 26.7574 20.2168C32.1568 18.7887 37.5736 17.4367 42.9855 16.0549C45.0847 15.5173 47.1754 14.9478 49.2839 14.4449C50.2562 14.2124 50.5623 13.7544 50.5738 12.7074C50.5939 10.8347 49.9599 9.10617 49.6821 7.30398C49.5204 6.25986 48.7698 5.99803 47.806 6.26249C47.3111 6.39821 46.7722 6.99622 46.4191 6.03758C46.0818 5.11507 46.6883 4.86245 47.3281 4.5947C48.398 4.14647 49.3812 3.47911 50.6265 3.29145C51.3201 4.36084 51.3983 5.6386 51.7943 6.80327Z" fill="#22244E"/>
    <path d="M38.64 32.8409C38.3249 33.149 38.1061 33.5152 38.413 33.9301C38.7118 34.3378 39.148 34.2613 39.5331 34.0867C40.2903 33.7471 41.0004 33.2896 41.78 33.0217C43.9783 32.2742 44.9889 32.892 45.6205 35.342C43.8896 35.5728 42.144 35.7485 40.6394 36.7544C39.0614 37.811 38.4328 39.303 38.9729 40.7739C39.5565 42.3606 41.1146 43.2356 42.9656 43.0473C43.9002 42.9522 44.7427 42.6177 45.507 42.096C46.0454 41.728 46.5398 41.3004 47.1484 40.8235C47.7934 41.4336 47.8081 42.0449 48.0237 42.5712C48.2127 43.0332 48.3951 43.5747 49.042 43.4262C49.6946 43.2762 49.6715 42.7262 49.535 42.2284C48.8302 39.6676 48.2773 37.0474 47.351 34.5645C45.9193 30.7288 41.5891 29.9441 38.64 32.8409ZM46.6364 38.6926C45.6112 40.1075 44.4329 41.4268 42.4808 41.4931C41.1348 41.5369 40.1387 40.4398 40.4497 39.3281C40.5786 38.8119 40.9392 38.4761 41.35 38.1889C42.6229 37.3041 44.077 37.0139 45.5826 37.0206C46.5625 37.0253 47.17 37.9592 46.6364 38.6926Z" fill="#22244E"/>
    <path d="M50.6045 34.485C50.5799 35.1005 50.7999 35.6319 51.4482 35.8248C51.9077 35.9627 52.313 35.736 52.3813 35.2952C52.4982 34.5834 52.2106 34.0204 51.4711 33.8116C50.9894 33.8226 50.623 33.986 50.6045 34.485Z" fill="#22244E"/>
    <defs>
    <linearGradient id="paint0_linear_184_161" x1="33.4455" y1="73.6936" x2="49.8307" y2="9.23136" gradientUnits="userSpaceOnUse">
    <stop offset="0.000599372" stop-color="white" stop-opacity="0.1"/>
    <stop offset="0.9611" stop-color="#00D8BB"/>
    </linearGradient>
    </defs>
</svg>
