<svg width="214" height="231" viewBox="0 0 214 231" fill="none" xmlns="http://www.w3.org/2000/svg">
    <path d="M168.003 78.0743C157.753 78.3743 153.903 76.8544 144.443 78.9944C142.523 79.4244 142.653 79.9043 140.863 79.8843C133.583 79.7943 126.293 79.9443 119.013 79.9743C99.5434 80.0543 90.1534 83.2543 62.7034 80.2543C59.5934 79.9143 52.8134 79.0744 43.6734 79.9844C37.6834 80.5844 33.8534 82.2144 30.3534 82.3344C20.3434 82.6744 10.3234 83.1043 0.0733859 83.5043C0.0633859 87.2243 -0.0866141 90.0744 0.0733859 92.8944C1.51339 118.504 2.85343 144.114 4.55343 169.694C5.68343 186.754 7.57341 203.724 10.4734 220.524C12.0734 229.774 12.0834 229.874 21.6034 230.484C27.1734 230.844 32.7834 230.934 38.3834 230.914C70.6434 230.804 102.823 227.704 135.033 225.454C153.233 224.184 171.483 223.944 189.623 221.324C200.453 219.764 200.263 219.734 200.733 208.954C202.593 166.614 199.073 124.544 198.663 82.3243C198.623 77.8143 196.873 77.1643 193.233 77.3243C193.063 77.3343 184.713 77.5843 168.003 78.0743Z" fill="url(#paint0_linear_162_257)"/>
    <path d="M151.213 1.39442C149.233 2.14442 149.593 4.16442 150.023 5.72442C151.573 11.3444 153.333 16.9044 154.933 22.5144C158.103 33.6544 158.083 33.6544 145.783 34.6344C145.483 33.9744 144.963 33.2844 144.893 32.5444C144.693 30.5844 144.743 28.0544 142.283 28.0344C139.033 28.0044 139.693 30.9944 139.623 33.0644C139.413 38.6044 139.693 44.1944 139.113 49.6844C138.153 58.6544 135.793 60.0544 127.893 56.2444C121.693 53.2644 115.873 52.5144 109.673 56.0244C107.003 57.5444 103.713 58.7144 100.953 56.7244C94.0434 51.7644 86.8234 50.8244 78.8734 53.5944C75.3334 54.8244 73.5234 52.7744 73.2734 49.4944C72.9534 45.3544 72.8134 41.1844 72.9634 37.0344C73.3534 25.9444 73.9434 14.8544 74.4534 3.76441C74.5334 1.99441 74.3334 0.204415 72.2034 0.0144146C70.0134 -0.185585 69.4834 1.73442 69.3734 3.36442C68.9434 9.73442 68.6534 16.1044 68.3534 22.4844C67.8634 33.0444 67.8734 33.0544 57.1034 32.9344C56.8234 32.9344 56.5434 32.9044 56.2734 32.9144C50.2634 33.0244 48.7234 34.1144 48.2534 39.9744C47.6534 47.4344 47.4734 54.9344 47.2734 62.4244C47.1034 68.4944 47.2134 68.5344 40.8934 68.6744C31.4534 68.8744 22.0134 68.9044 12.5734 69.1844C3.31338 69.4544 1.64342 70.9644 2.17342 80.0444C4.65342 122.164 6.90341 164.324 14.1034 206.004C14.8134 210.104 15.9034 214.134 16.7934 218.194C17.4034 221.014 18.9034 222.064 21.9934 222.314C29.7434 222.924 37.4534 223.744 45.2434 223.854C76.1034 224.294 106.853 222.114 137.613 220.324C160.053 219.014 182.603 219.364 204.903 215.894C212.243 214.754 212.543 214.814 213.113 207.174C213.633 200.264 213.573 193.314 213.673 186.374C214.203 148.314 209.833 110.424 209.583 72.3944C209.563 68.8944 207.693 67.1644 204.673 66.8044C201.103 66.3744 197.473 66.4144 193.873 66.4244C186.653 66.4544 179.433 66.5244 172.223 66.7244C168.813 66.8244 167.133 65.6644 167.153 62.0044C167.183 55.0644 166.943 48.1344 166.793 41.1944C166.743 38.7144 167.343 35.8044 165.303 34.0744C162.223 31.4544 161.923 27.8544 160.913 24.4544C158.933 17.8044 157.003 11.1344 155.023 4.47442C154.463 2.62442 153.903 0.384419 151.213 1.39442ZM96.4034 60.1244C101.243 63.5244 106.313 63.6344 111.343 60.9844C116.493 58.2744 121.293 58.3044 126.313 61.2644C128.173 62.3644 130.413 63.0444 132.563 63.3744C137.673 64.1644 140.793 62.1644 142.883 57.1444C143.303 56.1244 143.463 55.0044 143.823 53.9644C144.343 52.4744 145.553 51.7244 147.023 51.8344C148.873 51.9744 148.873 53.4944 148.823 54.9044C148.793 55.7344 148.783 56.5644 148.743 57.3944C148.013 70.2844 148.753 68.0544 137.663 67.9644C116.573 67.7844 95.4834 67.5144 74.3934 67.2144C68.1034 67.1244 68.0934 67.0244 67.3534 60.9244C67.0534 58.4444 66.7934 55.9644 66.5634 53.4744C66.5134 52.9444 66.6934 52.3944 66.9334 50.7244C72.0534 59.4544 73.5434 60.2744 82.1034 58.1144C87.2734 56.8044 92.0134 57.0444 96.4034 60.1244ZM161.583 50.8944C161.783 53.9344 161.553 57.0044 161.703 60.0544C162.243 71.0744 163.083 71.9544 173.803 71.9844C182.133 72.0044 190.463 71.8744 198.793 71.6444C202.393 71.5444 204.133 72.1944 204.253 76.5844C205.313 117.654 209.443 158.614 208.253 199.764C207.953 210.234 208.143 210.264 197.423 211.624C179.483 213.884 161.393 213.844 143.373 214.794C111.483 216.484 79.6234 218.994 47.6434 218.614C42.0934 218.544 36.5334 218.374 31.0034 217.944C21.5534 217.204 21.5434 217.114 19.8134 208.094C16.6834 191.704 14.5434 175.174 13.1634 158.564C11.0934 133.664 9.36341 108.724 7.54341 83.8044C7.34341 81.0644 7.44339 78.2944 7.39339 74.6744C17.5534 74.4444 27.4734 74.1744 37.3934 74.0044C52.3734 73.7444 52.3334 73.7744 52.5834 59.2744C52.6734 54.2744 52.8634 49.2844 53.2034 44.2944C53.6334 38.0244 53.7134 38.0244 60.2934 38.4244C60.8434 38.4544 61.4334 38.3744 61.9534 38.5244C63.8934 39.0944 66.7134 37.8944 67.3834 41.0744C68.0134 44.0744 66.0734 44.7544 63.6934 45.4044C61.1434 46.0944 60.5034 48.2044 60.7934 50.6844C61.4234 55.9244 62.2634 61.1544 62.5534 66.4144C62.8134 71.0744 64.9934 72.4644 69.4334 72.4744C88.0434 72.5344 106.643 72.8544 125.253 73.0744C132.473 73.1544 139.693 73.1244 146.913 73.3244C150.243 73.4144 151.623 72.2044 152.563 68.8444C154.243 62.8344 153.693 56.7244 154.353 50.6844C154.733 47.1844 152.543 45.6944 149.213 45.7144C147.503 45.7244 145.253 47.1844 144.943 43.7944C144.653 40.5344 146.823 40.2444 149.113 39.9344C152.943 39.4144 156.683 38.1144 160.853 38.5844C162.163 42.6244 161.313 46.8044 161.583 50.8944Z" fill="#22244E"/>
    <path d="M97.6534 120.134C96.3734 120.854 95.3534 121.844 95.9834 123.444C96.5934 125.014 98.0634 125.144 99.4534 124.914C102.183 124.474 104.863 123.614 107.603 123.424C115.323 122.914 118.043 125.774 117.963 134.204C112.193 133.454 106.423 132.514 100.713 134.454C94.7234 136.494 91.4134 140.754 91.8834 145.954C92.3934 151.564 96.6534 155.725 102.773 156.715C105.863 157.215 108.863 156.864 111.773 155.844C113.823 155.124 115.783 154.174 118.153 153.164C119.703 155.684 119.223 157.664 119.463 159.544C119.673 161.194 119.793 163.094 122.003 163.174C124.233 163.254 124.633 161.465 124.623 159.745C124.563 150.895 125.043 141.984 124.203 133.194C122.903 119.614 109.643 113.354 97.6534 120.134ZM118.343 145.864C113.823 149.535 108.893 152.764 102.553 151.294C98.1834 150.274 95.9234 145.884 97.8834 142.574C98.7434 141.024 100.193 140.255 101.763 139.685C106.623 137.935 111.553 138.254 116.393 139.574C119.543 140.434 120.693 143.964 118.343 145.864Z" fill="#22244E"/>
    <path d="M134.743 135.744C134.133 137.704 134.383 139.604 136.303 140.784C137.663 141.624 139.163 141.244 139.763 139.884C140.753 137.694 140.313 135.634 138.113 134.324C136.553 133.944 135.233 134.154 134.743 135.744Z" fill="#22244E"/>
    <defs>
    <linearGradient id="paint0_linear_162_257" x1="45.7033" y1="247.14" x2="154.032" y2="53.797" gradientUnits="userSpaceOnUse">
    <stop offset="0.000599372" stop-color="white" stop-opacity="0.1"/>
    <stop offset="0.9611" stop-color="#00D8BB"/>
    </linearGradient>
    </defs>
</svg>
