 <svg width="395" height="46" viewBox="0 0 395 46" fill="none" xmlns="http://www.w3.org/2000/svg">
    <path d="M64.86 38.1699H196.25" stroke="#FFFCEA" stroke-miterlimit="10" stroke-dasharray="4 4"/>
    <path d="M1.806 6.776C1.806 9.842 7.728 7.378 7.728 11.396C7.728 13.174 6.286 14.154 4.326 14.154C2.324 14.154 0.966 13.244 0.588 11.41H1.568C1.862 12.656 2.842 13.342 4.34 13.342C5.922 13.342 6.762 12.6 6.762 11.508C6.762 8.232 0.84 10.766 0.84 6.832C0.84 5.488 1.918 4.326 3.976 4.326C5.768 4.326 7.168 5.18 7.476 7.112H6.482C6.202 5.74 5.292 5.138 3.962 5.138C2.576 5.138 1.806 5.796 1.806 6.776ZM12.2748 14.154C10.1888 14.154 8.97083 12.712 8.97083 10.304C8.97083 7.798 10.2308 6.44 12.2748 6.44C14.3468 6.44 15.5648 7.896 15.5648 10.304C15.5648 12.796 14.3048 14.154 12.2748 14.154ZM12.2748 13.37C13.8008 13.37 14.6408 12.278 14.6408 10.304C14.6408 8.358 13.7728 7.224 12.2748 7.224C10.7348 7.224 9.89483 8.316 9.89483 10.304C9.89483 12.25 10.7628 13.37 12.2748 13.37ZM17.3202 14V3.92H18.2302V14H17.3202ZM20.3827 5.516V3.92H21.2927V5.516H20.3827ZM20.3827 14V6.594H21.2927V14H20.3827ZM29.3812 9.1H28.4712C28.2472 7.868 27.4072 7.224 26.3012 7.224C24.7892 7.224 23.9632 8.316 23.9632 10.304C23.9632 12.25 24.8312 13.37 26.3432 13.37C27.4632 13.37 28.2612 12.768 28.5272 11.55H29.4372C29.0872 13.37 27.8972 14.154 26.3152 14.154C24.2572 14.154 23.0392 12.698 23.0392 10.304C23.0392 7.798 24.2852 6.44 26.3012 6.44C27.9112 6.44 29.1292 7.364 29.3812 9.1ZM31.1288 5.516V3.92H32.0388V5.516H31.1288ZM31.1288 14V6.594H32.0388V14H31.1288ZM34.3313 11.97V7.322H33.2113V6.594H34.3313V4.886H35.2413V6.594H36.8933V7.322H35.2413V11.97C35.2413 12.95 35.5213 13.384 36.6553 13.384H36.8793V14.042C36.7673 14.084 36.5153 14.112 36.2633 14.112C34.9193 14.112 34.3313 13.454 34.3313 11.97ZM42.9855 11.018V6.594H43.8955V14H42.9855V12.74C42.4955 13.664 41.6415 14.154 40.6055 14.154C39.0655 14.154 38.1835 13.23 38.1835 11.55V6.594H39.0935V11.368C39.0935 12.558 39.6255 13.37 40.8575 13.37C42.2015 13.37 42.9855 12.138 42.9855 11.018ZM48.7048 14.154C46.7868 14.154 45.6388 12.712 45.6388 10.304C45.6388 7.798 46.8148 6.44 48.7048 6.44C49.6988 6.44 50.4688 6.888 50.9588 7.742V3.92H51.8688V14H50.9588V12.81C50.4688 13.664 49.6988 14.154 48.7048 14.154ZM48.7608 13.37C50.1888 13.37 50.9588 12.278 50.9588 10.304C50.9588 8.358 50.1608 7.224 48.7608 7.224C47.3468 7.224 46.5628 8.316 46.5628 10.304C46.5628 12.25 47.3748 13.37 48.7608 13.37ZM57.0259 17.206C56.8159 17.206 56.5779 17.15 56.4519 17.122V16.422H56.7739C57.7119 16.422 57.9359 16.268 58.6919 14.504L58.9859 13.804L55.9619 6.594H56.9559L59.0979 11.83L59.4619 12.852L59.8259 11.83L61.9119 6.594H62.8499L59.4059 14.994C58.6639 16.8 58.2579 17.206 57.0259 17.206ZM68.8254 14L66.0114 6.594H66.9914L69.2314 12.642L69.4134 13.216L69.5954 12.642L71.8354 6.594H72.7454L69.9314 14H68.8254ZM74.7744 9.002H73.8644C74.1024 7.392 75.1104 6.44 76.9024 6.44C78.8064 6.44 79.7164 7.56 79.7164 9.296V12.264C79.7164 13.076 79.7864 13.608 79.9964 14H79.0304C78.8484 13.65 78.8064 13.09 78.8064 12.572C78.1764 13.678 77.0704 14.154 76.1324 14.154C74.6064 14.154 73.6124 13.426 73.6124 12.054C73.6124 11.046 74.1584 10.374 75.2224 10.024C76.2444 9.688 77.2804 9.59 78.8064 9.59V9.338C78.8064 7.98 78.2044 7.224 76.8184 7.224C75.5864 7.224 74.9424 7.91 74.7744 9.002ZM74.5364 12.026C74.5364 12.866 75.1944 13.37 76.2164 13.37C77.6724 13.37 78.8064 12.166 78.8064 10.794V10.276C75.2924 10.29 74.5364 11.018 74.5364 12.026ZM81.9198 14V3.92H82.8298V14H81.9198ZM84.9823 5.516V3.92H85.8923V5.516H84.9823ZM84.9823 14V6.594H85.8923V14H84.9823ZM90.7048 14.154C88.7868 14.154 87.6388 12.712 87.6388 10.304C87.6388 7.798 88.8148 6.44 90.7048 6.44C91.6988 6.44 92.4688 6.888 92.9588 7.742V3.92H93.8688V14H92.9588V12.81C92.4688 13.664 91.6988 14.154 90.7048 14.154ZM90.7608 13.37C92.1888 13.37 92.9588 12.278 92.9588 10.304C92.9588 8.358 92.1608 7.224 90.7608 7.224C89.3468 7.224 88.5628 8.316 88.5628 10.304C88.5628 12.25 89.3748 13.37 90.7608 13.37ZM96.8272 9.002H95.9172C96.1552 7.392 97.1632 6.44 98.9552 6.44C100.859 6.44 101.769 7.56 101.769 9.296V12.264C101.769 13.076 101.839 13.608 102.049 14H101.083C100.901 13.65 100.859 13.09 100.859 12.572C100.229 13.678 99.1232 14.154 98.1852 14.154C96.6592 14.154 95.6652 13.426 95.6652 12.054C95.6652 11.046 96.2112 10.374 97.2752 10.024C98.2972 9.688 99.3332 9.59 100.859 9.59V9.338C100.859 7.98 100.257 7.224 98.8712 7.224C97.6392 7.224 96.9952 7.91 96.8272 9.002ZM96.5892 12.026C96.5892 12.866 97.2472 13.37 98.2692 13.37C99.7252 13.37 100.859 12.166 100.859 10.794V10.276C97.3452 10.29 96.5892 11.018 96.5892 12.026ZM109.909 9.1H108.999C108.775 7.868 107.935 7.224 106.829 7.224C105.317 7.224 104.491 8.316 104.491 10.304C104.491 12.25 105.359 13.37 106.871 13.37C107.991 13.37 108.789 12.768 109.055 11.55H109.965C109.615 13.37 108.425 14.154 106.843 14.154C104.785 14.154 103.567 12.698 103.567 10.304C103.567 7.798 104.813 6.44 106.829 6.44C108.439 6.44 109.657 7.364 109.909 9.1ZM111.656 5.516V3.92H112.566V5.516H111.656ZM111.656 14V6.594H112.566V14H111.656ZM117.085 5.516L118.499 3.92H119.661L117.981 5.516H117.085ZM117.617 14.154C115.531 14.154 114.313 12.712 114.313 10.304C114.313 7.798 115.573 6.44 117.617 6.44C119.689 6.44 120.907 7.896 120.907 10.304C120.907 12.796 119.647 14.154 117.617 14.154ZM117.617 13.37C119.143 13.37 119.983 12.278 119.983 10.304C119.983 8.358 119.115 7.224 117.617 7.224C116.077 7.224 115.237 8.316 115.237 10.304C115.237 12.25 116.105 13.37 117.617 13.37ZM122.662 14V6.594H123.572V7.84C124.076 6.93 124.93 6.44 125.98 6.44C127.548 6.44 128.444 7.378 128.444 9.044V14H127.548V9.24C127.548 8.036 126.988 7.21 125.742 7.21C124.37 7.21 123.572 8.456 123.572 9.576V14H122.662Z" fill="#00D8BB"/>
    <path d="M196.25 38.04L384.91 38.48" stroke="#FFFCEA" stroke-miterlimit="10" stroke-dasharray="4 4"/>
    <path d="M319.3 42.46C321.929 42.46 324.06 40.3288 324.06 37.7C324.06 35.0711 321.929 32.9399 319.3 32.9399C316.671 32.9399 314.54 35.0711 314.54 37.7C314.54 40.3288 316.671 42.46 319.3 42.46Z" fill="#2C2D56" stroke="#FFFCEA" stroke-miterlimit="10"/>
    <path d="M65.14 45.05C69.0833 45.05 72.28 41.8533 72.28 37.91C72.28 33.9667 69.0833 30.77 65.14 30.77C61.1967 30.77 58 33.9667 58 37.91C58 41.8533 61.1967 45.05 65.14 45.05Z" fill="#00D8BB"/>
    <path d="M244.33 4.48L247.466 12.334L247.732 13.062L247.984 12.334L251.134 4.48H252.072L248.264 14H247.158L243.336 4.48H244.33ZM253.484 5.516V3.92H254.394V5.516H253.484ZM253.484 14V6.594H254.394V14H253.484ZM256.547 14V6.594H257.457V7.84C257.961 6.93 258.815 6.44 259.865 6.44C261.433 6.44 262.329 7.378 262.329 9.044V14H261.433V9.24C261.433 8.036 260.873 7.21 259.627 7.21C258.255 7.21 257.457 8.456 257.457 9.576V14H256.547ZM270.426 9.1H269.516C269.292 7.868 268.452 7.224 267.346 7.224C265.834 7.224 265.008 8.316 265.008 10.304C265.008 12.25 265.876 13.37 267.388 13.37C268.508 13.37 269.306 12.768 269.572 11.55H270.482C270.132 13.37 268.942 14.154 267.36 14.154C265.302 14.154 264.084 12.698 264.084 10.304C264.084 7.798 265.33 6.44 267.346 6.44C268.956 6.44 270.174 7.364 270.426 9.1ZM276.976 11.018V6.594H277.886V14H276.976V12.74C276.486 13.664 275.632 14.154 274.596 14.154C273.056 14.154 272.174 13.23 272.174 11.55V6.594H273.084V11.368C273.084 12.558 273.616 13.37 274.848 13.37C276.192 13.37 276.976 12.138 276.976 11.018ZM280.035 14V3.92H280.945V14H280.035ZM283.896 9.002H282.986C283.224 7.392 284.232 6.44 286.024 6.44C287.928 6.44 288.838 7.56 288.838 9.296V12.264C288.838 13.076 288.908 13.608 289.118 14H288.152C287.97 13.65 287.928 13.09 287.928 12.572C287.298 13.678 286.192 14.154 285.254 14.154C283.728 14.154 282.734 13.426 282.734 12.054C282.734 11.046 283.28 10.374 284.344 10.024C285.366 9.688 286.402 9.59 287.928 9.59V9.338C287.928 7.98 287.326 7.224 285.94 7.224C284.708 7.224 284.064 7.91 283.896 9.002ZM283.658 12.026C283.658 12.866 284.316 13.37 285.338 13.37C286.794 13.37 287.928 12.166 287.928 10.794V10.276C284.414 10.29 283.658 11.018 283.658 12.026ZM296.977 9.1H296.067C295.843 7.868 295.003 7.224 293.897 7.224C292.385 7.224 291.559 8.316 291.559 10.304C291.559 12.25 292.427 13.37 293.939 13.37C295.059 13.37 295.857 12.768 296.123 11.55H297.033C296.683 13.37 295.493 14.154 293.911 14.154C291.853 14.154 290.635 12.698 290.635 10.304C290.635 7.798 291.881 6.44 293.897 6.44C295.507 6.44 296.725 7.364 296.977 9.1ZM298.724 5.516V3.92H299.634V5.516H298.724ZM298.724 14V6.594H299.634V14H298.724ZM304.153 5.516L305.567 3.92H306.729L305.049 5.516H304.153ZM304.685 14.154C302.599 14.154 301.381 12.712 301.381 10.304C301.381 7.798 302.641 6.44 304.685 6.44C306.757 6.44 307.975 7.896 307.975 10.304C307.975 12.796 306.715 14.154 304.685 14.154ZM304.685 13.37C306.211 13.37 307.051 12.278 307.051 10.304C307.051 8.358 306.183 7.224 304.685 7.224C303.145 7.224 302.305 8.316 302.305 10.304C302.305 12.25 303.173 13.37 304.685 13.37ZM309.73 14V6.594H310.64V7.84C311.144 6.93 311.998 6.44 313.048 6.44C314.616 6.44 315.512 7.378 315.512 9.044V14H314.616V9.24C314.616 8.036 314.056 7.21 312.81 7.21C311.438 7.21 310.64 8.456 310.64 9.576V14H309.73ZM323.218 14.154C321.3 14.154 320.152 12.712 320.152 10.304C320.152 7.798 321.328 6.44 323.218 6.44C324.212 6.44 324.982 6.888 325.472 7.742V3.92H326.382V14H325.472V12.81C324.982 13.664 324.212 14.154 323.218 14.154ZM323.274 13.37C324.702 13.37 325.472 12.278 325.472 10.304C325.472 8.358 324.674 7.224 323.274 7.224C321.86 7.224 321.076 8.316 321.076 10.304C321.076 12.25 321.888 13.37 323.274 13.37ZM334.717 11.592C334.311 13.328 333.107 14.154 331.483 14.154C329.383 14.154 328.137 12.712 328.137 10.304C328.137 7.798 329.397 6.44 331.413 6.44C333.457 6.44 334.675 7.854 334.675 10.192V10.444H329.061C329.103 12.306 329.985 13.37 331.483 13.37C332.645 13.37 333.485 12.768 333.779 11.592H334.717ZM331.413 7.224C330.041 7.224 329.229 8.106 329.089 9.744H333.737C333.597 8.148 332.771 7.224 331.413 7.224ZM345.545 11.592C345.139 13.328 343.935 14.154 342.311 14.154C340.211 14.154 338.965 12.712 338.965 10.304C338.965 7.798 340.225 6.44 342.241 6.44C344.285 6.44 345.503 7.854 345.503 10.192V10.444H339.889C339.931 12.306 340.813 13.37 342.311 13.37C343.473 13.37 344.313 12.768 344.607 11.592H345.545ZM342.241 7.224C340.869 7.224 340.057 8.106 339.917 9.744H344.565C344.425 8.148 343.599 7.224 342.241 7.224ZM347.314 14V6.594H348.224V7.784C348.686 6.902 349.47 6.44 350.436 6.44C351.514 6.44 352.242 6.958 352.55 7.91C353.012 6.958 353.838 6.44 354.86 6.44C356.33 6.44 357.184 7.378 357.184 9.044V14H356.274V9.24C356.274 8.036 355.784 7.21 354.664 7.21C353.432 7.21 352.704 8.456 352.704 9.576V14H351.794V9.24C351.794 8.036 351.304 7.21 350.184 7.21C348.952 7.21 348.224 8.456 348.224 9.576V14H347.314ZM360.256 17.08H359.36V6.594H360.256V7.798C360.746 6.93 361.53 6.44 362.524 6.44C364.442 6.44 365.59 7.882 365.59 10.276C365.59 12.796 364.414 14.154 362.524 14.154C361.516 14.154 360.732 13.692 360.256 12.838V17.08ZM362.468 7.224C361.04 7.224 360.256 8.302 360.256 10.29C360.256 12.236 361.068 13.37 362.468 13.37C363.882 13.37 364.652 12.264 364.652 10.276C364.652 8.344 363.854 7.224 362.468 7.224ZM367.344 14V6.594H368.254V7.952C368.744 6.944 369.57 6.44 370.536 6.44C370.816 6.44 371.068 6.496 371.208 6.594V7.42C371.012 7.35 370.746 7.308 370.48 7.308C368.968 7.308 368.254 8.428 368.254 9.744V14H367.344ZM378.494 11.592C378.088 13.328 376.884 14.154 375.26 14.154C373.16 14.154 371.914 12.712 371.914 10.304C371.914 7.798 373.174 6.44 375.19 6.44C377.234 6.44 378.452 7.854 378.452 10.192V10.444H372.838C372.88 12.306 373.762 13.37 375.26 13.37C376.422 13.37 377.262 12.768 377.556 11.592H378.494ZM375.19 7.224C373.818 7.224 373.006 8.106 372.866 9.744H377.514C377.374 8.148 376.548 7.224 375.19 7.224ZM380.824 8.47C380.824 10.78 385.71 8.848 385.71 11.928C385.71 13.314 384.52 14.154 382.868 14.154C381.146 14.154 379.97 13.314 379.69 11.592H380.6C380.782 12.782 381.622 13.426 382.896 13.426C384.142 13.426 384.8 12.838 384.8 11.998C384.8 9.688 379.956 11.592 379.956 8.54C379.956 7.42 380.796 6.44 382.546 6.44C384.086 6.44 385.22 7.196 385.444 9.002H384.534C384.352 7.7 383.624 7.182 382.49 7.182C381.426 7.182 380.824 7.728 380.824 8.47ZM388.13 9.002H387.22C387.458 7.392 388.466 6.44 390.258 6.44C392.162 6.44 393.072 7.56 393.072 9.296V12.264C393.072 13.076 393.142 13.608 393.352 14H392.386C392.204 13.65 392.162 13.09 392.162 12.572C391.532 13.678 390.426 14.154 389.488 14.154C387.962 14.154 386.968 13.426 386.968 12.054C386.968 11.046 387.514 10.374 388.578 10.024C389.6 9.688 390.636 9.59 392.162 9.59V9.338C392.162 7.98 391.56 7.224 390.174 7.224C388.942 7.224 388.298 7.91 388.13 9.002ZM387.892 12.026C387.892 12.866 388.55 13.37 389.572 13.37C391.028 13.37 392.162 12.166 392.162 10.794V10.276C388.648 10.29 387.892 11.018 387.892 12.026Z" fill="#FFFCEA"/>
    <path d="M4.09998 37.6799H64.86" stroke="#00D8BB" stroke-miterlimit="10"/>
</svg>