<svg width="14" height="15" viewBox="0 0 14 15" fill="none" xmlns="http://www.w3.org/2000/svg">
    <path d="M10.4953 14.0189C9.81517 13.9558 9.23316 13.8015 8.65817 13.5912C7.30483 13.0863 6.09875 12.329 4.98383 11.4174C3.41311 10.1342 2.10183 8.63359 1.11312 6.85952C0.594227 5.94093 0.208569 4.96629 0.0262538 3.92148C-0.0298431 3.61295 -0.00178608 3.33244 0.166505 3.05896C0.81162 2.02818 1.55491 1.08856 2.49453 0.303206C2.55063 0.254121 2.62072 0.212047 2.68383 0.169974C3.04145 -0.0824623 3.32196 -0.0473829 3.71464 0.233102C3.78476 0.289199 3.85485 0.359298 3.90393 0.429419C4.49996 1.27087 5.07496 2.12635 5.52373 3.05896C5.6219 3.26231 5.69906 3.47971 5.76918 3.69709C5.86034 3.97757 5.80426 4.23702 5.60792 4.44037C5.38353 4.67878 5.13809 4.88911 4.89267 5.10649C4.57712 5.38697 4.56311 5.37997 4.7314 5.77265C5.46066 7.47659 6.68775 8.66868 8.41974 9.34886C8.57401 9.41197 8.66516 9.39794 8.77034 9.2577C8.96668 9.00526 9.17705 8.77385 9.38741 8.54245C9.69595 8.19885 10.0676 8.09368 10.4953 8.29002C10.9932 8.52142 11.4911 8.75984 11.9609 9.04032C12.5008 9.36288 13.0127 9.7275 13.5316 10.0781C13.6087 10.1342 13.6859 10.1973 13.749 10.2745C14.0505 10.6671 14.0855 10.9616 13.8261 11.3403C13.5316 11.768 13.1599 12.1256 12.7743 12.4692C12.1712 13.0021 11.5472 13.507 10.8389 13.8927C10.7127 13.9488 10.5725 13.9909 10.4953 14.0189Z" fill="#00D8BB"/>
</svg>
